<?xml version="1.0" encoding="UTF-8" standalone="no"?>
<!DOCTYPE svg PUBLIC "-//W3C//DTD SVG 1.1//EN"
 "http://www.w3.org/Graphics/SVG/1.1/DTD/svg11.dtd">
<!-- Generated by graphviz version 3.0.0 (20220226.1711)
 -->
<!-- Title: g Pages: 1 -->
<svg width="3004pt" height="332pt"
 viewBox="0.00 0.00 3004.00 332.00" xmlns="http://www.w3.org/2000/svg" xmlns:xlink="http://www.w3.org/1999/xlink">
<g id="graph0" class="graph" transform="scale(1 1) rotate(0) translate(4 328)">
<title>g</title>
<polygon fill="white" stroke="transparent" points="-4,4 -4,-328 3000,-328 3000,4 -4,4"/>
<!-- 五 -->
<g id="node1" class="node">
<title>五</title>
<polygon fill="none" stroke="black" points="54,-252 0,-252 0,-216 54,-216 54,-252"/>
<text text-anchor="middle" x="27" y="-230.3" font-family="Times New Roman,serif" font-size="14.00" fill="red">五</text>
</g>
<!-- 吾 -->
<g id="node2" class="node">
<title>吾</title>
<polygon fill="none" stroke="black" points="54,-180 0,-180 0,-144 54,-144 54,-180"/>
<text text-anchor="middle" x="27" y="-158.3" font-family="Times New Roman,serif" font-size="14.00" fill="red">吾</text>
</g>
<!-- 五&#45;&gt;吾 -->
<g id="edge1" class="edge">
<title>五&#45;&gt;吾</title>
<path fill="none" stroke="black" d="M27,-215.7C27,-207.98 27,-198.71 27,-190.11"/>
<polygon fill="black" stroke="black" points="30.5,-190.1 27,-180.1 23.5,-190.1 30.5,-190.1"/>
</g>
<!-- 目 -->
<g id="node3" class="node">
<title>目</title>
<polygon fill="none" stroke="black" points="814,-324 760,-324 760,-288 814,-288 814,-324"/>
<text text-anchor="middle" x="787" y="-302.3" font-family="Times New Roman,serif" font-size="14.00" fill="red">目</text>
</g>
<!-- 算 -->
<g id="node4" class="node">
<title>算</title>
<polygon fill="none" stroke="black" points="380,-252 326,-252 326,-216 380,-216 380,-252"/>
<text text-anchor="middle" x="353" y="-230.3" font-family="Times New Roman,serif" font-size="14.00" fill="red">算</text>
</g>
<!-- 目&#45;&gt;算 -->
<g id="edge2" class="edge">
<title>目&#45;&gt;算</title>
<path fill="none" stroke="black" d="M759.86,-304.25C696.09,-301.91 531.99,-292.37 389.93,-251.75"/>
<polygon fill="black" stroke="black" points="390.75,-248.34 380.17,-248.9 388.79,-255.06 390.75,-248.34"/>
</g>
<!-- 冒 -->
<g id="node5" class="node">
<title>冒</title>
<polygon fill="none" stroke="black" points="1214,-180 1160,-180 1160,-144 1214,-144 1214,-180"/>
<text text-anchor="middle" x="1187" y="-158.3" font-family="Times New Roman,serif" font-size="14.00" fill="red">冒</text>
</g>
<!-- 目&#45;&gt;冒 -->
<g id="edge3" class="edge">
<title>目&#45;&gt;冒</title>
<path fill="none" stroke="black" d="M814.14,-303.66C885.73,-299.68 1077.74,-286.03 1130,-252 1152.6,-237.29 1168.03,-210.14 1177.08,-189.68"/>
<polygon fill="black" stroke="black" points="1180.39,-190.83 1181.02,-180.26 1173.93,-188.14 1180.39,-190.83"/>
</g>
<!-- 貝 -->
<g id="node6" class="node">
<title>貝</title>
<polygon fill="none" stroke="black" points="814,-252 760,-252 760,-216 814,-216 814,-252"/>
<text text-anchor="middle" x="787" y="-230.3" font-family="Times New Roman,serif" font-size="14.00" fill="red">貝</text>
</g>
<!-- 目&#45;&gt;貝 -->
<g id="edge4" class="edge">
<title>目&#45;&gt;貝</title>
<path fill="none" stroke="black" d="M787,-287.7C787,-279.98 787,-270.71 787,-262.11"/>
<polygon fill="black" stroke="black" points="790.5,-262.1 787,-252.1 783.5,-262.1 790.5,-262.1"/>
</g>
<!-- 自 -->
<g id="node7" class="node">
<title>自</title>
<polygon fill="none" stroke="black" points="994,-252 940,-252 940,-216 994,-216 994,-252"/>
<text text-anchor="middle" x="967" y="-230.3" font-family="Times New Roman,serif" font-size="14.00" fill="red">自</text>
</g>
<!-- 目&#45;&gt;自 -->
<g id="edge5" class="edge">
<title>目&#45;&gt;自</title>
<path fill="none" stroke="black" d="M814.08,-295.84C841.35,-286.43 884.77,-270.99 930.51,-252.04"/>
<polygon fill="black" stroke="black" points="932.11,-255.16 939.99,-248.07 929.41,-248.7 932.11,-255.16"/>
</g>
<!-- 見 -->
<g id="node8" class="node">
<title>見</title>
<polygon fill="none" stroke="black" points="742,-252 688,-252 688,-216 742,-216 742,-252"/>
<text text-anchor="middle" x="715" y="-230.3" font-family="Times New Roman,serif" font-size="14.00" fill="red">見</text>
</g>
<!-- 目&#45;&gt;見 -->
<g id="edge6" class="edge">
<title>目&#45;&gt;見</title>
<path fill="none" stroke="black" d="M769.2,-287.7C760.4,-279.14 749.62,-268.66 740,-259.3"/>
<polygon fill="black" stroke="black" points="742.2,-256.57 732.59,-252.1 737.32,-261.58 742.2,-256.57"/>
</g>
<!-- 唱 -->
<g id="node9" class="node">
<title>唱</title>
<polygon fill="none" stroke="black" points="488,-108 434,-108 434,-72 488,-72 488,-108"/>
<text text-anchor="middle" x="461" y="-86.3" font-family="Times New Roman,serif" font-size="14.00" fill="red">唱</text>
</g>
<!-- 冒&#45;&gt;唱 -->
<g id="edge7" class="edge">
<title>冒&#45;&gt;唱</title>
<path fill="none" stroke="black" d="M1159.91,-156.39C1137.27,-152.65 1104.1,-147.46 1075,-144 857.13,-118.09 594.33,-99.68 498.38,-93.38"/>
<polygon fill="black" stroke="black" points="498.51,-89.88 488.3,-92.73 498.05,-96.87 498.51,-89.88"/>
</g>
<!-- 員 -->
<g id="node25" class="node">
<title>員</title>
<polygon fill="none" stroke="black" points="706,-180 652,-180 652,-144 706,-144 706,-180"/>
<text text-anchor="middle" x="679" y="-158.3" font-family="Times New Roman,serif" font-size="14.00" fill="red">員</text>
</g>
<!-- 貝&#45;&gt;員 -->
<g id="edge75" class="edge">
<title>貝&#45;&gt;員</title>
<path fill="none" stroke="black" d="M760.58,-215.88C746.59,-206.81 729.22,-195.55 714.11,-185.76"/>
<polygon fill="black" stroke="black" points="715.82,-182.69 705.52,-180.19 712.01,-188.57 715.82,-182.69"/>
</g>
<!-- 頁 -->
<g id="node56" class="node">
<title>頁</title>
<polygon fill="none" stroke="black" points="850,-180 796,-180 796,-144 850,-144 850,-180"/>
<text text-anchor="middle" x="823" y="-158.3" font-family="Times New Roman,serif" font-size="14.00" fill="red">頁</text>
</g>
<!-- 貝&#45;&gt;頁 -->
<g id="edge77" class="edge">
<title>貝&#45;&gt;頁</title>
<path fill="none" stroke="black" d="M795.9,-215.7C800,-207.73 804.95,-198.1 809.49,-189.26"/>
<polygon fill="black" stroke="black" points="812.74,-190.6 814.2,-180.1 806.52,-187.4 812.74,-190.6"/>
</g>
<!-- 貞 -->
<g id="node65" class="node">
<title>貞</title>
<polygon fill="none" stroke="black" points="778,-180 724,-180 724,-144 778,-144 778,-180"/>
<text text-anchor="middle" x="751" y="-158.3" font-family="Times New Roman,serif" font-size="14.00" fill="red">貞</text>
</g>
<!-- 貝&#45;&gt;貞 -->
<g id="edge76" class="edge">
<title>貝&#45;&gt;貞</title>
<path fill="none" stroke="black" d="M778.1,-215.7C774,-207.73 769.05,-198.1 764.51,-189.26"/>
<polygon fill="black" stroke="black" points="767.48,-187.4 759.8,-180.1 761.26,-190.6 767.48,-187.4"/>
</g>
<!-- 首 -->
<g id="node55" class="node">
<title>首</title>
<polygon fill="none" stroke="black" points="994,-180 940,-180 940,-144 994,-144 994,-180"/>
<text text-anchor="middle" x="967" y="-158.3" font-family="Times New Roman,serif" font-size="14.00" fill="red">首</text>
</g>
<!-- 自&#45;&gt;首 -->
<g id="edge80" class="edge">
<title>自&#45;&gt;首</title>
<path fill="none" stroke="black" d="M967,-215.7C967,-207.98 967,-198.71 967,-190.11"/>
<polygon fill="black" stroke="black" points="970.5,-190.1 967,-180.1 963.5,-190.1 970.5,-190.1"/>
</g>
<!-- 旦 -->
<g id="node10" class="node">
<title>旦</title>
<polygon fill="none" stroke="black" points="1358,-180 1304,-180 1304,-144 1358,-144 1358,-180"/>
<text text-anchor="middle" x="1331" y="-158.3" font-family="Times New Roman,serif" font-size="14.00" fill="red">旦</text>
</g>
<!-- 亘 -->
<g id="node11" class="node">
<title>亘</title>
<polygon fill="none" stroke="black" points="1203,-108 1149,-108 1149,-72 1203,-72 1203,-108"/>
<text text-anchor="middle" x="1176" y="-86.3" font-family="Times New Roman,serif" font-size="14.00" fill="red">亘</text>
</g>
<!-- 旦&#45;&gt;亘 -->
<g id="edge8" class="edge">
<title>旦&#45;&gt;亘</title>
<path fill="none" stroke="black" d="M1303.9,-148.13C1300.9,-146.72 1297.89,-145.33 1295,-144 1267.36,-131.32 1235.92,-117.34 1212.3,-106.92"/>
<polygon fill="black" stroke="black" points="1213.58,-103.66 1203.02,-102.83 1210.76,-110.06 1213.58,-103.66"/>
</g>
<!-- 胆 -->
<g id="node12" class="node">
<title>胆</title>
<polygon fill="none" stroke="black" points="1360,-108 1306,-108 1306,-72 1360,-72 1360,-108"/>
<text text-anchor="middle" x="1333" y="-86.3" font-family="Times New Roman,serif" font-size="14.00" fill="red">胆</text>
</g>
<!-- 旦&#45;&gt;胆 -->
<g id="edge9" class="edge">
<title>旦&#45;&gt;胆</title>
<path fill="none" stroke="black" d="M1331.49,-143.7C1331.71,-135.98 1331.98,-126.71 1332.23,-118.11"/>
<polygon fill="black" stroke="black" points="1335.72,-118.2 1332.51,-108.1 1328.73,-118 1335.72,-118.2"/>
</g>
<!-- 白 -->
<g id="node13" class="node">
<title>白</title>
<polygon fill="none" stroke="black" points="1972,-180 1918,-180 1918,-144 1972,-144 1972,-180"/>
<text text-anchor="middle" x="1945" y="-158.3" font-family="Times New Roman,serif" font-size="14.00" fill="red">白</text>
</g>
<!-- 的 -->
<g id="node14" class="node">
<title>的</title>
<polygon fill="none" stroke="black" points="2315,-108 2261,-108 2261,-72 2315,-72 2315,-108"/>
<text text-anchor="middle" x="2288" y="-86.3" font-family="Times New Roman,serif" font-size="14.00" fill="red">的</text>
</g>
<!-- 白&#45;&gt;的 -->
<g id="edge10" class="edge">
<title>白&#45;&gt;的</title>
<path fill="none" stroke="black" d="M1972.21,-147.22C1975.13,-146.02 1978.1,-144.92 1981,-144 2075.43,-114.16 2191.83,-99.89 2250.47,-94.19"/>
<polygon fill="black" stroke="black" points="2251.1,-97.64 2260.73,-93.22 2250.44,-90.67 2251.1,-97.64"/>
</g>
<!-- 百 -->
<g id="node15" class="node">
<title>百</title>
<polygon fill="none" stroke="black" points="1518,-108 1464,-108 1464,-72 1518,-72 1518,-108"/>
<text text-anchor="middle" x="1491" y="-86.3" font-family="Times New Roman,serif" font-size="14.00" fill="red">百</text>
</g>
<!-- 白&#45;&gt;百 -->
<g id="edge11" class="edge">
<title>白&#45;&gt;百</title>
<path fill="none" stroke="black" d="M1917.86,-147C1914.92,-145.85 1911.93,-144.81 1909,-144 1752.75,-100.75 1704.92,-140.1 1546,-108 1540.1,-106.81 1533.93,-105.24 1527.95,-103.53"/>
<polygon fill="black" stroke="black" points="1528.72,-100.11 1518.14,-100.57 1526.7,-106.81 1528.72,-100.11"/>
</g>
<!-- 千 -->
<g id="node16" class="node">
<title>千</title>
<polygon fill="none" stroke="black" points="2586,-180 2532,-180 2532,-144 2586,-144 2586,-180"/>
<text text-anchor="middle" x="2559" y="-158.3" font-family="Times New Roman,serif" font-size="14.00" fill="red">千</text>
</g>
<!-- 舌 -->
<g id="node17" class="node">
<title>舌</title>
<polygon fill="none" stroke="black" points="1609,-108 1555,-108 1555,-72 1609,-72 1609,-108"/>
<text text-anchor="middle" x="1582" y="-86.3" font-family="Times New Roman,serif" font-size="14.00" fill="red">舌</text>
</g>
<!-- 千&#45;&gt;舌 -->
<g id="edge12" class="edge">
<title>千&#45;&gt;舌</title>
<path fill="none" stroke="black" d="M2531.64,-148.11C2527.17,-146.46 2522.52,-144.99 2518,-144 2128.33,-58.26 2009.88,-197.25 1621,-108 1620.27,-107.83 1619.54,-107.65 1618.8,-107.46"/>
<polygon fill="black" stroke="black" points="1619.86,-104.12 1609.26,-104.38 1617.71,-110.78 1619.86,-104.12"/>
</g>
<!-- 元 -->
<g id="node18" class="node">
<title>元</title>
<polygon fill="none" stroke="black" points="922,-180 868,-180 868,-144 922,-144 922,-180"/>
<text text-anchor="middle" x="895" y="-158.3" font-family="Times New Roman,serif" font-size="14.00" fill="red">元</text>
</g>
<!-- 頑 -->
<g id="node19" class="node">
<title>頑</title>
<polygon fill="none" stroke="black" points="886,-108 832,-108 832,-72 886,-72 886,-108"/>
<text text-anchor="middle" x="859" y="-86.3" font-family="Times New Roman,serif" font-size="14.00" fill="red">頑</text>
</g>
<!-- 元&#45;&gt;頑 -->
<g id="edge13" class="edge">
<title>元&#45;&gt;頑</title>
<path fill="none" stroke="black" d="M886.1,-143.7C882,-135.73 877.05,-126.1 872.51,-117.26"/>
<polygon fill="black" stroke="black" points="875.48,-115.4 867.8,-108.1 869.26,-118.6 875.48,-115.4"/>
</g>
<!-- 勺 -->
<g id="node20" class="node">
<title>勺</title>
<polygon fill="none" stroke="black" points="2658,-180 2604,-180 2604,-144 2658,-144 2658,-180"/>
<text text-anchor="middle" x="2631" y="-158.3" font-family="Times New Roman,serif" font-size="14.00" fill="red">勺</text>
</g>
<!-- 勺&#45;&gt;的 -->
<g id="edge14" class="edge">
<title>勺&#45;&gt;的</title>
<path fill="none" stroke="black" d="M2603.79,-147.22C2600.87,-146.02 2597.9,-144.92 2595,-144 2500.57,-114.16 2384.17,-99.89 2325.53,-94.19"/>
<polygon fill="black" stroke="black" points="2325.56,-90.67 2315.27,-93.22 2324.9,-97.64 2325.56,-90.67"/>
</g>
<!-- 口 -->
<g id="node21" class="node">
<title>口</title>
<polygon fill="none" stroke="black" points="452,-252 398,-252 398,-216 452,-216 452,-252"/>
<text text-anchor="middle" x="425" y="-230.3" font-family="Times New Roman,serif" font-size="14.00" fill="red">口</text>
</g>
<!-- 口&#45;&gt;吾 -->
<g id="edge16" class="edge">
<title>口&#45;&gt;吾</title>
<path fill="none" stroke="black" d="M397.85,-219.04C394.91,-217.87 391.93,-216.83 389,-216 251.88,-177.23 205.36,-217.76 64.05,-179.71"/>
<polygon fill="black" stroke="black" points="64.73,-176.27 54.15,-176.96 62.85,-183.01 64.73,-176.27"/>
</g>
<!-- 口&#45;&gt;唱 -->
<g id="edge20" class="edge">
<title>口&#45;&gt;唱</title>
<path fill="none" stroke="black" d="M397.8,-219.2C394.87,-218.01 391.9,-216.91 389,-216 342.56,-201.47 204.45,-217.13 173,-180 162.66,-167.79 162.76,-156.29 173,-144 204.49,-106.19 353.01,-95.26 423.58,-92.17"/>
<polygon fill="black" stroke="black" points="423.96,-95.66 433.81,-91.76 423.67,-88.67 423.96,-95.66"/>
</g>
<!-- 口&#45;&gt;舌 -->
<g id="edge19" class="edge">
<title>口&#45;&gt;舌</title>
<path fill="none" stroke="black" d="M452.19,-229.09C488.87,-222.93 555.31,-208.61 605,-180 625.16,-168.39 621.57,-153.05 643,-144 733.56,-105.76 1430.12,-124.65 1527,-108 1532.93,-106.98 1539.12,-105.5 1545.11,-103.83"/>
<polygon fill="black" stroke="black" points="1546.35,-107.11 1554.92,-100.89 1544.34,-100.41 1546.35,-107.11"/>
</g>
<!-- 占 -->
<g id="node22" class="node">
<title>占</title>
<polygon fill="none" stroke="black" points="308,-180 254,-180 254,-144 308,-144 308,-180"/>
<text text-anchor="middle" x="281" y="-158.3" font-family="Times New Roman,serif" font-size="14.00" fill="red">占</text>
</g>
<!-- 口&#45;&gt;占 -->
<g id="edge15" class="edge">
<title>口&#45;&gt;占</title>
<path fill="none" stroke="black" d="M397.91,-219.83C375.23,-208.81 342.64,-192.97 317.63,-180.81"/>
<polygon fill="black" stroke="black" points="318.98,-177.57 308.45,-176.35 315.92,-183.87 318.98,-177.57"/>
</g>
<!-- 呂 -->
<g id="node23" class="node">
<title>呂</title>
<polygon fill="none" stroke="black" points="380,-180 326,-180 326,-144 380,-144 380,-180"/>
<text text-anchor="middle" x="353" y="-158.3" font-family="Times New Roman,serif" font-size="14.00" fill="red">呂</text>
</g>
<!-- 口&#45;&gt;呂 -->
<g id="edge17" class="edge">
<title>口&#45;&gt;呂</title>
<path fill="none" stroke="black" d="M407.2,-215.7C398.4,-207.14 387.62,-196.66 378,-187.3"/>
<polygon fill="black" stroke="black" points="380.2,-184.57 370.59,-180.1 375.32,-189.58 380.2,-184.57"/>
</g>
<!-- 句 -->
<g id="node24" class="node">
<title>句</title>
<polygon fill="none" stroke="black" points="452,-180 398,-180 398,-144 452,-144 452,-180"/>
<text text-anchor="middle" x="425" y="-158.3" font-family="Times New Roman,serif" font-size="14.00" fill="red">句</text>
</g>
<!-- 口&#45;&gt;句 -->
<g id="edge18" class="edge">
<title>口&#45;&gt;句</title>
<path fill="none" stroke="black" d="M425,-215.7C425,-207.98 425,-198.71 425,-190.11"/>
<polygon fill="black" stroke="black" points="428.5,-190.1 425,-180.1 421.5,-190.1 428.5,-190.1"/>
</g>
<!-- 口&#45;&gt;員 -->
<g id="edge21" class="edge">
<title>口&#45;&gt;員</title>
<path fill="none" stroke="black" d="M452.27,-227.58C493.14,-219.15 572.49,-201.6 638,-180 639.42,-179.53 640.86,-179.04 642.3,-178.52"/>
<polygon fill="black" stroke="black" points="643.75,-181.72 651.87,-174.91 641.27,-175.17 643.75,-181.72"/>
</g>
<!-- 中 -->
<g id="node26" class="node">
<title>中</title>
<polygon fill="none" stroke="black" points="524,-180 470,-180 470,-144 524,-144 524,-180"/>
<text text-anchor="middle" x="497" y="-158.3" font-family="Times New Roman,serif" font-size="14.00" fill="red">中</text>
</g>
<!-- 口&#45;&gt;中 -->
<g id="edge22" class="edge">
<title>口&#45;&gt;中</title>
<path fill="none" stroke="black" d="M442.8,-215.7C451.6,-207.14 462.38,-196.66 472,-187.3"/>
<polygon fill="black" stroke="black" points="474.68,-189.58 479.41,-180.1 469.8,-184.57 474.68,-189.58"/>
</g>
<!-- 古 -->
<g id="node27" class="node">
<title>古</title>
<polygon fill="none" stroke="black" points="1066,-180 1012,-180 1012,-144 1066,-144 1066,-180"/>
<text text-anchor="middle" x="1039" y="-158.3" font-family="Times New Roman,serif" font-size="14.00" fill="red">古</text>
</g>
<!-- 口&#45;&gt;古 -->
<g id="edge23" class="edge">
<title>口&#45;&gt;古</title>
<path fill="none" stroke="black" d="M452.17,-231.07C554.72,-223.71 916.41,-197.05 1002.04,-179.35"/>
<polygon fill="black" stroke="black" points="1002.94,-182.73 1011.86,-177.02 1001.32,-175.92 1002.94,-182.73"/>
</g>
<!-- 品 -->
<g id="node28" class="node">
<title>品</title>
<polygon fill="none" stroke="black" points="596,-180 542,-180 542,-144 596,-144 596,-180"/>
<text text-anchor="middle" x="569" y="-158.3" font-family="Times New Roman,serif" font-size="14.00" fill="red">品</text>
</g>
<!-- 口&#45;&gt;品 -->
<g id="edge24" class="edge">
<title>口&#45;&gt;品</title>
<path fill="none" stroke="black" d="M452.09,-219.83C474.77,-208.81 507.36,-192.97 532.37,-180.81"/>
<polygon fill="black" stroke="black" points="534.08,-183.87 541.55,-176.35 531.02,-177.57 534.08,-183.87"/>
</g>
<!-- 言 -->
<g id="node29" class="node">
<title>言</title>
<polygon fill="none" stroke="black" points="126,-180 72,-180 72,-144 126,-144 126,-180"/>
<text text-anchor="middle" x="99" y="-158.3" font-family="Times New Roman,serif" font-size="14.00" fill="red">言</text>
</g>
<!-- 口&#45;&gt;言 -->
<g id="edge25" class="edge">
<title>口&#45;&gt;言</title>
<path fill="none" stroke="black" d="M397.82,-219.14C394.89,-217.95 391.91,-216.88 389,-216 281.93,-183.77 247.82,-209.64 140,-180 138.56,-179.6 137.1,-179.17 135.64,-178.71"/>
<polygon fill="black" stroke="black" points="136.61,-175.34 126.01,-175.31 134.28,-181.94 136.61,-175.34"/>
</g>
<!-- 只 -->
<g id="node30" class="node">
<title>只</title>
<polygon fill="none" stroke="black" points="236,-180 182,-180 182,-144 236,-144 236,-180"/>
<text text-anchor="middle" x="209" y="-158.3" font-family="Times New Roman,serif" font-size="14.00" fill="red">只</text>
</g>
<!-- 口&#45;&gt;只 -->
<g id="edge26" class="edge">
<title>口&#45;&gt;只</title>
<path fill="none" stroke="black" d="M397.72,-219.44C394.81,-218.2 391.86,-217.02 389,-216 329.79,-194.85 309.07,-201.47 245.92,-179.95"/>
<polygon fill="black" stroke="black" points="246.88,-176.58 236.28,-176.56 244.56,-183.18 246.88,-176.58"/>
</g>
<!-- 設 -->
<g id="node42" class="node">
<title>設</title>
<polygon fill="none" stroke="black" points="126,-108 72,-108 72,-72 126,-72 126,-108"/>
<text text-anchor="middle" x="99" y="-86.3" font-family="Times New Roman,serif" font-size="14.00" fill="red">設</text>
</g>
<!-- 言&#45;&gt;設 -->
<g id="edge40" class="edge">
<title>言&#45;&gt;設</title>
<path fill="none" stroke="black" d="M99,-143.7C99,-135.98 99,-126.71 99,-118.11"/>
<polygon fill="black" stroke="black" points="102.5,-118.1 99,-108.1 95.5,-118.1 102.5,-118.1"/>
</g>
<!-- 計 -->
<g id="node43" class="node">
<title>計</title>
<polygon fill="none" stroke="black" points="1437,-108 1383,-108 1383,-72 1437,-72 1437,-108"/>
<text text-anchor="middle" x="1410" y="-86.3" font-family="Times New Roman,serif" font-size="14.00" fill="red">計</text>
</g>
<!-- 言&#45;&gt;計 -->
<g id="edge41" class="edge">
<title>言&#45;&gt;計</title>
<path fill="none" stroke="black" d="M126.18,-153.41C140.07,-149.88 157.31,-146.02 173,-144 436.72,-110.07 1109.03,-163.84 1369,-108 1370.27,-107.73 1371.55,-107.42 1372.84,-107.07"/>
<polygon fill="black" stroke="black" points="1374.2,-110.31 1382.65,-103.93 1372.06,-103.65 1374.2,-110.31"/>
</g>
<!-- 日 -->
<g id="node31" class="node">
<title>日</title>
<polygon fill="none" stroke="black" points="1828,-252 1774,-252 1774,-216 1828,-216 1828,-252"/>
<text text-anchor="middle" x="1801" y="-230.3" font-family="Times New Roman,serif" font-size="14.00" fill="red">日</text>
</g>
<!-- 日&#45;&gt;冒 -->
<g id="edge33" class="edge">
<title>日&#45;&gt;冒</title>
<path fill="none" stroke="black" d="M1773.83,-231.07C1671.28,-223.71 1309.59,-197.05 1223.96,-179.35"/>
<polygon fill="black" stroke="black" points="1224.68,-175.92 1214.14,-177.02 1223.06,-182.73 1224.68,-175.92"/>
</g>
<!-- 日&#45;&gt;旦 -->
<g id="edge39" class="edge">
<title>日&#45;&gt;旦</title>
<path fill="none" stroke="black" d="M1773.99,-232.67C1706.28,-231.23 1524.17,-223.53 1367.94,-179.73"/>
<polygon fill="black" stroke="black" points="1368.74,-176.32 1358.16,-176.93 1366.81,-183.05 1368.74,-176.32"/>
</g>
<!-- 日&#45;&gt;白 -->
<g id="edge28" class="edge">
<title>日&#45;&gt;白</title>
<path fill="none" stroke="black" d="M1828.09,-219.83C1850.77,-208.81 1883.36,-192.97 1908.37,-180.81"/>
<polygon fill="black" stroke="black" points="1910.08,-183.87 1917.55,-176.35 1907.02,-177.57 1910.08,-183.87"/>
</g>
<!-- 晶 -->
<g id="node32" class="node">
<title>晶</title>
<polygon fill="none" stroke="black" points="1900,-180 1846,-180 1846,-144 1900,-144 1900,-180"/>
<text text-anchor="middle" x="1873" y="-158.3" font-family="Times New Roman,serif" font-size="14.00" fill="red">晶</text>
</g>
<!-- 日&#45;&gt;晶 -->
<g id="edge27" class="edge">
<title>日&#45;&gt;晶</title>
<path fill="none" stroke="black" d="M1818.8,-215.7C1827.6,-207.14 1838.38,-196.66 1848,-187.3"/>
<polygon fill="black" stroke="black" points="1850.68,-189.58 1855.41,-180.1 1845.8,-184.57 1850.68,-189.58"/>
</g>
<!-- 旬 -->
<g id="node33" class="node">
<title>旬</title>
<polygon fill="none" stroke="black" points="1612,-180 1558,-180 1558,-144 1612,-144 1612,-180"/>
<text text-anchor="middle" x="1585" y="-158.3" font-family="Times New Roman,serif" font-size="14.00" fill="red">旬</text>
</g>
<!-- 日&#45;&gt;旬 -->
<g id="edge29" class="edge">
<title>日&#45;&gt;旬</title>
<path fill="none" stroke="black" d="M1773.73,-226.38C1739.9,-217.86 1680.41,-201.9 1621.73,-180"/>
<polygon fill="black" stroke="black" points="1622.92,-176.71 1612.33,-176.44 1620.44,-183.26 1622.92,-176.71"/>
</g>
<!-- 昌 -->
<g id="node34" class="node">
<title>昌</title>
<polygon fill="none" stroke="black" points="1828,-180 1774,-180 1774,-144 1828,-144 1828,-180"/>
<text text-anchor="middle" x="1801" y="-158.3" font-family="Times New Roman,serif" font-size="14.00" fill="red">昌</text>
</g>
<!-- 日&#45;&gt;昌 -->
<g id="edge30" class="edge">
<title>日&#45;&gt;昌</title>
<path fill="none" stroke="black" d="M1801,-215.7C1801,-207.98 1801,-198.71 1801,-190.11"/>
<polygon fill="black" stroke="black" points="1804.5,-190.1 1801,-180.1 1797.5,-190.1 1804.5,-190.1"/>
</g>
<!-- 旭 -->
<g id="node35" class="node">
<title>旭</title>
<polygon fill="none" stroke="black" points="2116,-180 2062,-180 2062,-144 2116,-144 2116,-180"/>
<text text-anchor="middle" x="2089" y="-158.3" font-family="Times New Roman,serif" font-size="14.00" fill="red">旭</text>
</g>
<!-- 日&#45;&gt;旭 -->
<g id="edge31" class="edge">
<title>日&#45;&gt;旭</title>
<path fill="none" stroke="black" d="M1828.03,-229.44C1873.08,-223.05 1966.28,-207.92 2052.13,-179.88"/>
<polygon fill="black" stroke="black" points="2053.38,-183.16 2061.76,-176.67 2051.16,-176.52 2053.38,-183.16"/>
</g>
<!-- 朝 -->
<g id="node36" class="node">
<title>朝</title>
<polygon fill="none" stroke="black" points="1756,-180 1702,-180 1702,-144 1756,-144 1756,-180"/>
<text text-anchor="middle" x="1729" y="-158.3" font-family="Times New Roman,serif" font-size="14.00" fill="red">朝</text>
</g>
<!-- 日&#45;&gt;朝 -->
<g id="edge32" class="edge">
<title>日&#45;&gt;朝</title>
<path fill="none" stroke="black" d="M1783.2,-215.7C1774.4,-207.14 1763.62,-196.66 1754,-187.3"/>
<polygon fill="black" stroke="black" points="1756.2,-184.57 1746.59,-180.1 1751.32,-189.58 1756.2,-184.57"/>
</g>
<!-- 昇 -->
<g id="node37" class="node">
<title>昇</title>
<polygon fill="none" stroke="black" points="2044,-180 1990,-180 1990,-144 2044,-144 2044,-180"/>
<text text-anchor="middle" x="2017" y="-158.3" font-family="Times New Roman,serif" font-size="14.00" fill="red">昇</text>
</g>
<!-- 日&#45;&gt;昇 -->
<g id="edge34" class="edge">
<title>日&#45;&gt;昇</title>
<path fill="none" stroke="black" d="M1828.27,-226.38C1862.1,-217.86 1921.59,-201.9 1980.27,-180"/>
<polygon fill="black" stroke="black" points="1981.56,-183.26 1989.67,-176.44 1979.08,-176.71 1981.56,-183.26"/>
</g>
<!-- 卓 -->
<g id="node38" class="node">
<title>卓</title>
<polygon fill="none" stroke="black" points="2260,-180 2206,-180 2206,-144 2260,-144 2260,-180"/>
<text text-anchor="middle" x="2233" y="-158.3" font-family="Times New Roman,serif" font-size="14.00" fill="red">卓</text>
</g>
<!-- 日&#45;&gt;卓 -->
<g id="edge35" class="edge">
<title>日&#45;&gt;卓</title>
<path fill="none" stroke="black" d="M1828.27,-230.45C1902.92,-223.31 2110.16,-202.33 2195.98,-179.67"/>
<polygon fill="black" stroke="black" points="2197.15,-182.97 2205.83,-176.89 2195.25,-176.23 2197.15,-182.97"/>
</g>
<!-- 明 -->
<g id="node39" class="node">
<title>明</title>
<polygon fill="none" stroke="black" points="1540,-180 1486,-180 1486,-144 1540,-144 1540,-180"/>
<text text-anchor="middle" x="1513" y="-158.3" font-family="Times New Roman,serif" font-size="14.00" fill="red">明</text>
</g>
<!-- 日&#45;&gt;明 -->
<g id="edge36" class="edge">
<title>日&#45;&gt;明</title>
<path fill="none" stroke="black" d="M1773.97,-229.44C1728.92,-223.05 1635.72,-207.92 1549.87,-179.88"/>
<polygon fill="black" stroke="black" points="1550.84,-176.52 1540.24,-176.67 1548.62,-183.16 1550.84,-176.52"/>
</g>
<!-- 旧 -->
<g id="node40" class="node">
<title>旧</title>
<polygon fill="none" stroke="black" points="1684,-180 1630,-180 1630,-144 1684,-144 1684,-180"/>
<text text-anchor="middle" x="1657" y="-158.3" font-family="Times New Roman,serif" font-size="14.00" fill="red">旧</text>
</g>
<!-- 日&#45;&gt;旧 -->
<g id="edge37" class="edge">
<title>日&#45;&gt;旧</title>
<path fill="none" stroke="black" d="M1773.91,-219.83C1751.23,-208.81 1718.64,-192.97 1693.63,-180.81"/>
<polygon fill="black" stroke="black" points="1694.98,-177.57 1684.45,-176.35 1691.92,-183.87 1694.98,-177.57"/>
</g>
<!-- 早 -->
<g id="node41" class="node">
<title>早</title>
<polygon fill="none" stroke="black" points="2188,-180 2134,-180 2134,-144 2188,-144 2188,-180"/>
<text text-anchor="middle" x="2161" y="-158.3" font-family="Times New Roman,serif" font-size="14.00" fill="red">早</text>
</g>
<!-- 日&#45;&gt;早 -->
<g id="edge38" class="edge">
<title>日&#45;&gt;早</title>
<path fill="none" stroke="black" d="M1828.04,-231.13C1882.8,-226.82 2010.55,-214.03 2123.92,-179.85"/>
<polygon fill="black" stroke="black" points="2125.27,-183.1 2133.8,-176.81 2123.21,-176.41 2125.27,-183.1"/>
</g>
<!-- 児 -->
<g id="node46" class="node">
<title>児</title>
<polygon fill="none" stroke="black" points="1684,-108 1630,-108 1630,-72 1684,-72 1684,-108"/>
<text text-anchor="middle" x="1657" y="-86.3" font-family="Times New Roman,serif" font-size="14.00" fill="red">児</text>
</g>
<!-- 旧&#45;&gt;児 -->
<g id="edge43" class="edge">
<title>旧&#45;&gt;児</title>
<path fill="none" stroke="black" d="M1657,-143.7C1657,-135.98 1657,-126.71 1657,-118.11"/>
<polygon fill="black" stroke="black" points="1660.5,-118.1 1657,-108.1 1653.5,-118.1 1660.5,-118.1"/>
</g>
<!-- 水 -->
<g id="node44" class="node">
<title>水</title>
<polygon fill="none" stroke="black" points="2924,-252 2870,-252 2870,-216 2924,-216 2924,-252"/>
<text text-anchor="middle" x="2897" y="-230.3" font-family="Times New Roman,serif" font-size="14.00" fill="red">水</text>
</g>
<!-- 法 -->
<g id="node45" class="node">
<title>法</title>
<polygon fill="none" stroke="black" points="2960,-180 2906,-180 2906,-144 2960,-144 2960,-180"/>
<text text-anchor="middle" x="2933" y="-158.3" font-family="Times New Roman,serif" font-size="14.00" fill="red">法</text>
</g>
<!-- 水&#45;&gt;法 -->
<g id="edge42" class="edge">
<title>水&#45;&gt;法</title>
<path fill="none" stroke="black" d="M2905.9,-215.7C2910,-207.73 2914.95,-198.1 2919.49,-189.26"/>
<polygon fill="black" stroke="black" points="2922.74,-190.6 2924.2,-180.1 2916.52,-187.4 2922.74,-190.6"/>
</g>
<!-- 寸 -->
<g id="node47" class="node">
<title>寸</title>
<polygon fill="none" stroke="black" points="2730,-180 2676,-180 2676,-144 2730,-144 2730,-180"/>
<text text-anchor="middle" x="2703" y="-158.3" font-family="Times New Roman,serif" font-size="14.00" fill="red">寸</text>
</g>
<!-- 専 -->
<g id="node48" class="node">
<title>専</title>
<polygon fill="none" stroke="black" points="2768,-108 2714,-108 2714,-72 2768,-72 2768,-108"/>
<text text-anchor="middle" x="2741" y="-86.3" font-family="Times New Roman,serif" font-size="14.00" fill="red">専</text>
</g>
<!-- 寸&#45;&gt;専 -->
<g id="edge44" class="edge">
<title>寸&#45;&gt;専</title>
<path fill="none" stroke="black" d="M2712.39,-143.7C2716.76,-135.64 2722.06,-125.89 2726.9,-116.98"/>
<polygon fill="black" stroke="black" points="2730.02,-118.56 2731.71,-108.1 2723.87,-115.22 2730.02,-118.56"/>
</g>
<!-- 博 -->
<g id="node52" class="node">
<title>博</title>
<polygon fill="none" stroke="black" points="2795,-36 2741,-36 2741,0 2795,0 2795,-36"/>
<text text-anchor="middle" x="2768" y="-14.3" font-family="Times New Roman,serif" font-size="14.00" fill="red">博</text>
</g>
<!-- 専&#45;&gt;博 -->
<g id="edge74" class="edge">
<title>専&#45;&gt;博</title>
<path fill="none" stroke="black" d="M2747.67,-71.7C2750.71,-63.81 2754.38,-54.3 2757.76,-45.55"/>
<polygon fill="black" stroke="black" points="2761.07,-46.69 2761.4,-36.1 2754.54,-44.17 2761.07,-46.69"/>
</g>
<!-- 竹 -->
<g id="node49" class="node">
<title>竹</title>
<polygon fill="none" stroke="black" points="380,-324 326,-324 326,-288 380,-288 380,-324"/>
<text text-anchor="middle" x="353" y="-302.3" font-family="Times New Roman,serif" font-size="14.00" fill="red">竹</text>
</g>
<!-- 竹&#45;&gt;算 -->
<g id="edge45" class="edge">
<title>竹&#45;&gt;算</title>
<path fill="none" stroke="black" d="M353,-287.7C353,-279.98 353,-270.71 353,-262.11"/>
<polygon fill="black" stroke="black" points="356.5,-262.1 353,-252.1 349.5,-262.1 356.5,-262.1"/>
</g>
<!-- 二 -->
<g id="node50" class="node">
<title>二</title>
<polygon fill="none" stroke="black" points="922,-252 868,-252 868,-216 922,-216 922,-252"/>
<text text-anchor="middle" x="895" y="-230.3" font-family="Times New Roman,serif" font-size="14.00" fill="red">二</text>
</g>
<!-- 二&#45;&gt;元 -->
<g id="edge46" class="edge">
<title>二&#45;&gt;元</title>
<path fill="none" stroke="black" d="M895,-215.7C895,-207.98 895,-198.71 895,-190.11"/>
<polygon fill="black" stroke="black" points="898.5,-190.1 895,-180.1 891.5,-190.1 898.5,-190.1"/>
</g>
<!-- 十 -->
<g id="node51" class="node">
<title>十</title>
<polygon fill="none" stroke="black" points="2504,-252 2450,-252 2450,-216 2504,-216 2504,-252"/>
<text text-anchor="middle" x="2477" y="-230.3" font-family="Times New Roman,serif" font-size="14.00" fill="red">十</text>
</g>
<!-- 十&#45;&gt;千 -->
<g id="edge51" class="edge">
<title>十&#45;&gt;千</title>
<path fill="none" stroke="black" d="M2497.27,-215.7C2507.5,-206.97 2520.06,-196.24 2531.18,-186.75"/>
<polygon fill="black" stroke="black" points="2533.63,-189.26 2538.96,-180.1 2529.09,-183.94 2533.63,-189.26"/>
</g>
<!-- 十&#45;&gt;古 -->
<g id="edge52" class="edge">
<title>十&#45;&gt;古</title>
<path fill="none" stroke="black" d="M2449.77,-230.34C2410.07,-226.57 2333.93,-219.7 2269,-216 1772.66,-187.74 1646.07,-225.38 1151,-180 1125.92,-177.7 1097.91,-173.45 1076.17,-169.77"/>
<polygon fill="black" stroke="black" points="1076.5,-166.28 1066.05,-168.03 1075.31,-173.17 1076.5,-166.28"/>
</g>
<!-- 十&#45;&gt;朝 -->
<g id="edge56" class="edge">
<title>十&#45;&gt;朝</title>
<path fill="none" stroke="black" d="M2449.75,-230.68C2410.02,-227.33 2333.85,-220.97 2269,-216 2048.36,-199.1 1984.11,-235.81 1765.96,-179.65"/>
<polygon fill="black" stroke="black" points="1766.68,-176.22 1756.12,-177.08 1764.91,-182.99 1766.68,-176.22"/>
</g>
<!-- 十&#45;&gt;卓 -->
<g id="edge48" class="edge">
<title>十&#45;&gt;卓</title>
<path fill="none" stroke="black" d="M2449.91,-227.83C2411.54,-220.14 2339.17,-204.28 2270.02,-180.03"/>
<polygon fill="black" stroke="black" points="2270.88,-176.62 2260.29,-176.55 2268.53,-183.21 2270.88,-176.62"/>
</g>
<!-- 十&#45;&gt;早 -->
<g id="edge54" class="edge">
<title>十&#45;&gt;早</title>
<path fill="none" stroke="black" d="M2449.79,-230.18C2400.72,-224.59 2294.26,-210.24 2197.82,-179.82"/>
<polygon fill="black" stroke="black" points="2198.82,-176.47 2188.22,-176.73 2196.67,-183.13 2198.82,-176.47"/>
</g>
<!-- 十&#45;&gt;計 -->
<g id="edge50" class="edge">
<title>十&#45;&gt;計</title>
<path fill="none" stroke="black" d="M2485.45,-215.68C2493.89,-195.61 2503.21,-162.86 2485,-144 2445.23,-102.81 1511.14,-119.27 1455,-108 1452.33,-107.46 1449.61,-106.79 1446.89,-106.02"/>
<polygon fill="black" stroke="black" points="1447.78,-102.63 1437.19,-102.89 1445.63,-109.29 1447.78,-102.63"/>
</g>
<!-- 十&#45;&gt;寸 -->
<g id="edge53" class="edge">
<title>十&#45;&gt;寸</title>
<path fill="none" stroke="black" d="M2504.2,-226.95C2539.68,-218.72 2603.71,-202.76 2666.1,-180.03"/>
<polygon fill="black" stroke="black" points="2667.53,-183.24 2675.69,-176.48 2665.1,-176.67 2667.53,-183.24"/>
</g>
<!-- 十&#45;&gt;専 -->
<g id="edge47" class="edge">
<title>十&#45;&gt;専</title>
<path fill="none" stroke="black" d="M2504.39,-231.64C2565.34,-227.98 2709.14,-215.68 2739,-180 2753.13,-163.12 2752.15,-137.48 2748.51,-118.05"/>
<polygon fill="black" stroke="black" points="2751.93,-117.28 2746.36,-108.26 2745.09,-118.78 2751.93,-117.28"/>
</g>
<!-- 十&#45;&gt;博 -->
<g id="edge49" class="edge">
<title>十&#45;&gt;博</title>
<path fill="none" stroke="black" d="M2504.46,-231.53C2567.97,-227.56 2722.39,-214.51 2759,-180 2794.97,-146.1 2785.6,-82.37 2776.33,-46.09"/>
<polygon fill="black" stroke="black" points="2779.64,-44.93 2773.63,-36.2 2772.89,-46.77 2779.64,-44.93"/>
</g>
<!-- 世 -->
<g id="node53" class="node">
<title>世</title>
<polygon fill="none" stroke="black" points="2476,-180 2422,-180 2422,-144 2476,-144 2476,-180"/>
<text text-anchor="middle" x="2449" y="-158.3" font-family="Times New Roman,serif" font-size="14.00" fill="red">世</text>
</g>
<!-- 十&#45;&gt;世 -->
<g id="edge55" class="edge">
<title>十&#45;&gt;世</title>
<path fill="none" stroke="black" d="M2470.08,-215.7C2466.93,-207.81 2463.12,-198.3 2459.62,-189.55"/>
<polygon fill="black" stroke="black" points="2462.81,-188.09 2455.84,-180.1 2456.31,-190.69 2462.81,-188.09"/>
</g>
<!-- 一 -->
<g id="node54" class="node">
<title>一</title>
<polygon fill="none" stroke="black" points="1121,-252 1067,-252 1067,-216 1121,-216 1121,-252"/>
<text text-anchor="middle" x="1094" y="-230.3" font-family="Times New Roman,serif" font-size="14.00" fill="red">一</text>
</g>
<!-- 一&#45;&gt;旦 -->
<g id="edge60" class="edge">
<title>一&#45;&gt;旦</title>
<path fill="none" stroke="black" d="M1121.14,-227.5C1158.39,-219.61 1227.44,-203.7 1293.92,-180.07"/>
<polygon fill="black" stroke="black" points="1295.49,-183.22 1303.7,-176.52 1293.11,-176.64 1295.49,-183.22"/>
</g>
<!-- 一&#45;&gt;亘 -->
<g id="edge58" class="edge">
<title>一&#45;&gt;亘</title>
<path fill="none" stroke="black" d="M1095.74,-215.81C1098.27,-197.01 1104.27,-166.55 1118,-144 1124.65,-133.08 1134.21,-123.05 1143.65,-114.72"/>
<polygon fill="black" stroke="black" points="1146.08,-117.25 1151.49,-108.14 1141.58,-111.89 1146.08,-117.25"/>
</g>
<!-- 一&#45;&gt;百 -->
<g id="edge57" class="edge">
<title>一&#45;&gt;百</title>
<path fill="none" stroke="black" d="M1102.8,-215.67C1115.02,-192.32 1137.18,-152.69 1151,-144 1262.82,-73.69 1317.74,-139.57 1446,-108 1448.65,-107.35 1451.35,-106.59 1454.05,-105.75"/>
<polygon fill="black" stroke="black" points="1455.37,-109 1463.73,-102.5 1453.13,-102.37 1455.37,-109"/>
</g>
<!-- 一&#45;&gt;首 -->
<g id="edge59" class="edge">
<title>一&#45;&gt;首</title>
<path fill="none" stroke="black" d="M1066.76,-217.98C1048.17,-207.74 1023.36,-194.07 1003.13,-182.92"/>
<polygon fill="black" stroke="black" points="1004.65,-179.75 994.2,-177.99 1001.27,-185.88 1004.65,-179.75"/>
</g>
<!-- 一&#45;&gt;頁 -->
<g id="edge61" class="edge">
<title>一&#45;&gt;頁</title>
<path fill="none" stroke="black" d="M1066.9,-227.67C1017.05,-217.74 911.83,-196.2 859.9,-179.83"/>
<polygon fill="black" stroke="black" points="860.85,-176.46 850.26,-176.63 858.65,-183.1 860.85,-176.46"/>
</g>
<!-- 頁&#45;&gt;頑 -->
<g id="edge72" class="edge">
<title>頁&#45;&gt;頑</title>
<path fill="none" stroke="black" d="M831.9,-143.7C836,-135.73 840.95,-126.1 845.49,-117.26"/>
<polygon fill="black" stroke="black" points="848.74,-118.6 850.2,-108.1 842.52,-115.4 848.74,-118.6"/>
</g>
<!-- 土 -->
<g id="node57" class="node">
<title>土</title>
<polygon fill="none" stroke="black" points="2996,-324 2942,-324 2942,-288 2996,-288 2996,-324"/>
<text text-anchor="middle" x="2969" y="-302.3" font-family="Times New Roman,serif" font-size="14.00" fill="red">土</text>
</g>
<!-- 去 -->
<g id="node58" class="node">
<title>去</title>
<polygon fill="none" stroke="black" points="2996,-252 2942,-252 2942,-216 2996,-216 2996,-252"/>
<text text-anchor="middle" x="2969" y="-230.3" font-family="Times New Roman,serif" font-size="14.00" fill="red">去</text>
</g>
<!-- 土&#45;&gt;去 -->
<g id="edge62" class="edge">
<title>土&#45;&gt;去</title>
<path fill="none" stroke="black" d="M2969,-287.7C2969,-279.98 2969,-270.71 2969,-262.11"/>
<polygon fill="black" stroke="black" points="2972.5,-262.1 2969,-252.1 2965.5,-262.1 2972.5,-262.1"/>
</g>
<!-- 去&#45;&gt;法 -->
<g id="edge71" class="edge">
<title>去&#45;&gt;法</title>
<path fill="none" stroke="black" d="M2960.1,-215.7C2956,-207.73 2951.05,-198.1 2946.51,-189.26"/>
<polygon fill="black" stroke="black" points="2949.48,-187.4 2941.8,-180.1 2943.26,-190.6 2949.48,-187.4"/>
</g>
<!-- 月 -->
<g id="node59" class="node">
<title>月</title>
<polygon fill="none" stroke="black" points="1513,-252 1459,-252 1459,-216 1513,-216 1513,-252"/>
<text text-anchor="middle" x="1486" y="-230.3" font-family="Times New Roman,serif" font-size="14.00" fill="red">月</text>
</g>
<!-- 月&#45;&gt;胆 -->
<g id="edge68" class="edge">
<title>月&#45;&gt;胆</title>
<path fill="none" stroke="black" d="M1480.6,-215.96C1473.67,-196.44 1459.99,-164.53 1439,-144 1428.32,-133.56 1395.67,-117.91 1369.4,-106.33"/>
<polygon fill="black" stroke="black" points="1370.62,-103.05 1360.06,-102.26 1367.83,-109.46 1370.62,-103.05"/>
</g>
<!-- 月&#45;&gt;朝 -->
<g id="edge67" class="edge">
<title>月&#45;&gt;朝</title>
<path fill="none" stroke="black" d="M1513.29,-227.75C1551.56,-220.01 1623.35,-204.15 1692.04,-180.01"/>
<polygon fill="black" stroke="black" points="1693.48,-183.21 1701.71,-176.54 1691.12,-176.62 1693.48,-183.21"/>
</g>
<!-- 月&#45;&gt;明 -->
<g id="edge65" class="edge">
<title>月&#45;&gt;明</title>
<path fill="none" stroke="black" d="M1492.67,-215.7C1495.71,-207.81 1499.38,-198.3 1502.76,-189.55"/>
<polygon fill="black" stroke="black" points="1506.07,-190.69 1506.4,-180.1 1499.54,-188.17 1506.07,-190.69"/>
</g>
<!-- 肌 -->
<g id="node60" class="node">
<title>肌</title>
<polygon fill="none" stroke="black" points="1430,-180 1376,-180 1376,-144 1430,-144 1430,-180"/>
<text text-anchor="middle" x="1403" y="-158.3" font-family="Times New Roman,serif" font-size="14.00" fill="red">肌</text>
</g>
<!-- 月&#45;&gt;肌 -->
<g id="edge63" class="edge">
<title>月&#45;&gt;肌</title>
<path fill="none" stroke="black" d="M1465.48,-215.7C1455.13,-206.97 1442.41,-196.24 1431.16,-186.75"/>
<polygon fill="black" stroke="black" points="1433.18,-183.88 1423.28,-180.1 1428.67,-189.23 1433.18,-183.88"/>
</g>
<!-- 朋 -->
<g id="node61" class="node">
<title>朋</title>
<polygon fill="none" stroke="black" points="1286,-180 1232,-180 1232,-144 1286,-144 1286,-180"/>
<text text-anchor="middle" x="1259" y="-158.3" font-family="Times New Roman,serif" font-size="14.00" fill="red">朋</text>
</g>
<!-- 月&#45;&gt;朋 -->
<g id="edge64" class="edge">
<title>月&#45;&gt;朋</title>
<path fill="none" stroke="black" d="M1458.97,-227.04C1423.37,-218.86 1358.8,-202.89 1295.97,-180.06"/>
<polygon fill="black" stroke="black" points="1296.9,-176.67 1286.31,-176.49 1294.48,-183.24 1296.9,-176.67"/>
</g>
<!-- 胃 -->
<g id="node62" class="node">
<title>胃</title>
<polygon fill="none" stroke="black" points="2332,-180 2278,-180 2278,-144 2332,-144 2332,-180"/>
<text text-anchor="middle" x="2305" y="-158.3" font-family="Times New Roman,serif" font-size="14.00" fill="red">胃</text>
</g>
<!-- 月&#45;&gt;胃 -->
<g id="edge66" class="edge">
<title>月&#45;&gt;胃</title>
<path fill="none" stroke="black" d="M1513.15,-231.3C1641.41,-223.26 2183.68,-189.06 2267.86,-178.69"/>
<polygon fill="black" stroke="black" points="2268.56,-182.12 2277.88,-177.09 2267.45,-175.21 2268.56,-182.12"/>
</g>
<!-- 田 -->
<g id="node63" class="node">
<title>田</title>
<polygon fill="none" stroke="black" points="2732,-252 2678,-252 2678,-216 2732,-216 2732,-252"/>
<text text-anchor="middle" x="2705" y="-230.3" font-family="Times New Roman,serif" font-size="14.00" fill="red">田</text>
</g>
<!-- 田&#45;&gt;専 -->
<g id="edge69" class="edge">
<title>田&#45;&gt;専</title>
<path fill="none" stroke="black" d="M2732.3,-219.32C2746.98,-210.34 2763.73,-197.09 2772,-180 2781.99,-159.37 2771.76,-134.67 2760.45,-116.53"/>
<polygon fill="black" stroke="black" points="2763.36,-114.58 2754.9,-108.2 2757.54,-118.46 2763.36,-114.58"/>
</g>
<!-- 田&#45;&gt;胃 -->
<g id="edge70" class="edge">
<title>田&#45;&gt;胃</title>
<path fill="none" stroke="black" d="M2677.92,-231.79C2618.16,-228.56 2470.72,-217.44 2341.82,-179.74"/>
<polygon fill="black" stroke="black" points="2342.77,-176.37 2332.18,-176.86 2340.76,-183.08 2342.77,-176.37"/>
</g>
<!-- 升 -->
<g id="node64" class="node">
<title>升</title>
<polygon fill="none" stroke="black" points="2044,-252 1990,-252 1990,-216 2044,-216 2044,-252"/>
<text text-anchor="middle" x="2017" y="-230.3" font-family="Times New Roman,serif" font-size="14.00" fill="red">升</text>
</g>
<!-- 升&#45;&gt;昇 -->
<g id="edge73" class="edge">
<title>升&#45;&gt;昇</title>
<path fill="none" stroke="black" d="M2017,-215.7C2017,-207.98 2017,-198.71 2017,-190.11"/>
<polygon fill="black" stroke="black" points="2020.5,-190.1 2017,-180.1 2013.5,-190.1 2020.5,-190.1"/>
</g>
<!-- 九 -->
<g id="node66" class="node">
<title>九</title>
<polygon fill="none" stroke="black" points="2260,-252 2206,-252 2206,-216 2260,-216 2260,-252"/>
<text text-anchor="middle" x="2233" y="-230.3" font-family="Times New Roman,serif" font-size="14.00" fill="red">九</text>
</g>
<!-- 九&#45;&gt;旭 -->
<g id="edge79" class="edge">
<title>九&#45;&gt;旭</title>
<path fill="none" stroke="black" d="M2205.91,-219.83C2183.23,-208.81 2150.64,-192.97 2125.63,-180.81"/>
<polygon fill="black" stroke="black" points="2126.98,-177.57 2116.45,-176.35 2123.92,-183.87 2126.98,-177.57"/>
</g>
<!-- 丸 -->
<g id="node67" class="node">
<title>丸</title>
<polygon fill="none" stroke="black" points="2404,-180 2350,-180 2350,-144 2404,-144 2404,-180"/>
<text text-anchor="middle" x="2377" y="-158.3" font-family="Times New Roman,serif" font-size="14.00" fill="red">丸</text>
</g>
<!-- 九&#45;&gt;丸 -->
<g id="edge78" class="edge">
<title>九&#45;&gt;丸</title>
<path fill="none" stroke="black" d="M2260.09,-219.83C2282.77,-208.81 2315.36,-192.97 2340.37,-180.81"/>
<polygon fill="black" stroke="black" points="2342.08,-183.87 2349.55,-176.35 2339.02,-177.57 2342.08,-183.87"/>
</g>
</g>
</svg>
